<?xml version="1.0" encoding="UTF-8"?>
<svg width="231px" height="38px" viewBox="0 0 231 38" version="1.1" xmlns="http://www.w3.org/2000/svg" xmlns:xlink="http://www.w3.org/1999/xlink">
    <!-- Generator: Sketch 47.1 (45422) - http://www.bohemiancoding.com/sketch -->
    <title>Group 3@3x</title>
    <desc>Created with Sketch.</desc>
    <defs></defs>
    <g id="Page-1" stroke="none" stroke-width="1" fill="none" fill-rule="evenodd">
        <g id="Desktop" transform="translate(-112.000000, -50.000000)">
            <g id="Group">
                <g id="Group-3" transform="translate(111.000000, 0.000000)">
                    <path d="M26.064,88 L23.04,80.368 L10.368,80.368 L7.344,88 L1.2,88 L16.704,50.752 L32.16,88 L26.064,88 Z M12.384,75.376 L21.024,75.376 L16.704,64.528 L12.384,75.376 Z M57.552,82.96 L42.672,82.96 L42.672,52.384 L37.104,52.384 L37.104,88 L57.552,88 L57.552,82.96 Z M82.8,72.736 C83.424,74.176 83.712,75.76 83.712,77.44 C83.712,79.216 83.328,80.8 82.56,82.24 C81.792,83.584 80.688,84.736 79.296,85.648 C76.848,87.184 73.536,88 69.504,88 L61.632,88 L61.632,52.384 L69.504,52.384 C73.44,52.384 76.32,53.104 78.336,54.592 C79.44,55.408 80.256,56.464 80.784,57.664 C81.264,58.768 81.504,60.016 81.504,61.408 C81.504,63.328 80.88,65.68 78.72,67.936 C79.296,68.32 79.824,68.752 80.352,69.232 C81.408,70.288 82.224,71.44 82.8,72.736 Z M69.504,57.376 L67.2,57.376 L67.2,68.176 C68.304,67.936 69.6,67.552 70.848,67.024 C72.624,66.304 74.016,65.488 74.976,64.528 C75.984,63.568 76.464,62.56 76.464,61.408 C76.464,59.68 75.84,59.008 75.312,58.624 C73.968,57.616 71.376,57.376 69.504,57.376 Z M76.56,81.424 C78.048,80.464 78.72,79.216 78.72,77.44 C78.72,75.568 78.096,74.08 76.848,72.88 C76.128,72.16 75.216,71.584 74.112,71.104 C73.632,71.296 73.152,71.536 72.624,71.728 C70.656,72.544 68.688,73.024 67.2,73.36 L67.2,82.96 L69.504,82.96 C72.528,82.96 74.976,82.432 76.56,81.424 Z M95.424,57.376 L111.216,57.376 L111.216,52.384 L89.856,52.384 L89.856,88 L111.216,88 L111.216,82.96 L95.424,82.96 L95.424,71.92 L108.432,71.92 L108.432,66.88 L95.424,66.88 L95.424,57.376 Z M133.104,75.136 L142.704,88 L136.416,88 L127.44,75.952 L123.36,75.952 L123.36,88 L117.792,88 L117.792,52.384 L128.352,52.384 C133.056,52.384 135.792,54.304 137.232,55.936 C139.104,58 140.112,60.88 140.112,64.192 C140.112,67.456 139.104,70.336 137.232,72.4 C136.368,73.36 135.024,74.464 133.104,75.136 Z M123.36,70.96 L128.352,70.96 C130.656,70.96 132.384,70.288 133.488,69.04 C134.832,67.6 135.072,65.584 135.072,64.192 C135.072,62.752 134.832,60.736 133.488,59.296 C132.384,58.048 130.656,57.424 128.352,57.424 L123.36,57.424 L123.36,70.96 Z M169.584,52.384 L144.384,52.384 L144.384,57.376 L154.176,57.376 L154.176,88 L159.792,88 L159.792,57.376 L169.584,57.376 L169.584,52.384 Z" id="Albert" fill="#9C824A"></path>
                    <path d="M194.064,88 L191.04,80.368 L178.368,80.368 L175.344,88 L169.2,88 L184.704,50.752 L200.16,88 L194.064,88 Z M180.384,75.376 L189.024,75.376 L184.704,64.528 L180.384,75.376 Z M231.552,88 L231.552,82.432 L213.744,82.432 L232.032,52.384 L207.792,52.384 L207.792,57.952 L222.096,57.952 L203.808,88 L231.552,88 Z" id="az" fill="#DB0306"></path>
                </g>
            </g>
        </g>
    </g>
</svg>